<svg width="24" height="24" viewBox="0 0 24 24" fill="none" xmlns="http://www.w3.org/2000/svg">
<path d="M3.94592 20.8654C3.96964 20.835 3.99154 20.8022 4.0183 20.7736C4.33396 20.4324 4.65022 20.0924 4.98595 19.7305C6.83367 21.3538 8.95934 22.2618 11.4341 22.4139C11.4341 17.3275 11.4341 12.2654 11.4341 7.18022C11.9645 7.18022 12.4656 7.18022 13.0118 7.18022C13.0118 12.2362 13.0118 17.294 13.0118 22.3817C15.5377 22.1061 17.6494 21.0764 19.4283 19.323C19.7884 19.7025 20.1351 20.068 20.4836 20.4354C16.3381 24.9166 8.62909 25.298 3.94592 20.8654Z" fill="#1D1C1C"/>
<path d="M4.74201 19.5049C4.35641 19.8759 3.99331 20.2262 3.61805 20.5875C2.74528 19.7457 2.013 18.7817 1.43886 17.7015C-2.47432 10.3392 1.96739 1.38769 10.2529 0.136615C12.5976 -0.217359 14.857 0.120193 17.0162 1.1067C17.4291 1.29524 17.4614 1.44973 17.1725 1.78789C17.0277 1.95697 16.872 2.11875 16.7388 2.29695C16.5704 2.5226 16.3861 2.54936 16.1312 2.43806C14.736 1.82864 13.2745 1.5513 11.7522 1.58292C7.11522 1.67963 3.02931 4.86236 1.91934 9.36002C0.981492 13.1613 1.9017 16.5167 4.61368 19.3625C4.64774 19.3966 4.67998 19.4349 4.74201 19.5049Z" fill="#1D1C1C"/>
<path d="M20.8235 20.1745C20.4051 19.7779 20.039 19.4307 19.6625 19.0736C20.7968 17.8159 21.6002 16.4079 22.0521 14.7548C19.1528 14.7548 16.29 14.7548 13.4065 14.7548C13.4065 14.2214 13.4065 13.7214 13.4065 13.1808C13.5214 13.1808 13.6291 13.1808 13.7361 13.1808C16.9481 13.1808 20.1606 13.1808 23.3725 13.1808C23.8652 13.1808 23.9357 13.2586 23.8609 13.7585C23.5069 16.1269 22.5259 18.2033 20.9434 19.9975C20.9032 20.0431 20.8746 20.0985 20.8235 20.1745Z" fill="#1D1C1C"/>
<path d="M11.136 13.1637C11.136 13.7221 11.136 14.2159 11.136 14.7299C9.93544 14.7299 8.74457 14.7299 7.51965 14.7299C7.54946 14.3947 7.73678 14.1715 7.98189 13.9885C8.5682 13.5512 9.25547 13.3784 9.95916 13.2696C10.3362 13.2112 10.7206 13.199 11.136 13.1637Z" fill="#1D1C1C"/>
<path d="M11.4565 6.76299C11.4565 5.55145 11.4565 4.3691 11.4565 3.17277C11.7643 3.15574 11.9924 3.31144 12.1237 3.53161C12.3597 3.92694 12.5817 4.34052 12.7344 4.77356C12.9576 5.40487 13.0178 6.07086 13.0123 6.7636C12.4881 6.76299 11.9869 6.76299 11.4565 6.76299Z" fill="#1D1C1C"/>
</svg>
